<svg width="161" height="161" viewBox="0 0 161 161" fill="none" xmlns="http://www.w3.org/2000/svg">
<circle cx="80.5" cy="80.5" r="80.5" fill="#41A4FF"/>
<path d="M47.8633 84.5273C47.6419 87.5872 46.5091 89.9961 44.4648 91.7539C42.4336 93.5117 39.7513 94.3906 36.418 94.3906C32.7721 94.3906 29.901 93.1667 27.8047 90.7188C25.7214 88.2578 24.6797 84.8854 24.6797 80.6016V78.8633C24.6797 76.1289 25.1615 73.7201 26.125 71.6367C27.0885 69.5534 28.4622 67.9583 30.2461 66.8516C32.043 65.7318 34.1263 65.1719 36.4961 65.1719C39.7773 65.1719 42.4206 66.0508 44.4258 67.8086C46.431 69.5664 47.5898 72.0339 47.9023 75.2109H42.043C41.8997 73.375 41.3854 72.0469 40.5 71.2266C39.6276 70.3932 38.293 69.9766 36.4961 69.9766C34.543 69.9766 33.0781 70.6797 32.1016 72.0859C31.138 73.4792 30.6432 75.6471 30.6172 78.5898V80.7383C30.6172 83.8112 31.0794 86.0573 32.0039 87.4766C32.9414 88.8958 34.4128 89.6055 36.418 89.6055C38.2279 89.6055 39.5755 89.1953 40.4609 88.375C41.3594 87.5417 41.8737 86.2591 42.0039 84.5273H47.8633ZM56.8477 75.1719C58.3451 73.375 60.2266 72.4766 62.4922 72.4766C67.0755 72.4766 69.3997 75.1393 69.4648 80.4648V94H63.8203V80.6211C63.8203 79.4102 63.5599 78.5182 63.0391 77.9453C62.5182 77.3594 61.6523 77.0664 60.4414 77.0664C58.7878 77.0664 57.5898 77.7044 56.8477 78.9805V94H51.2031V64H56.8477V75.1719ZM85.9688 94C85.7083 93.4922 85.5195 92.8607 85.4023 92.1055C84.0352 93.6289 82.2578 94.3906 80.0703 94.3906C78 94.3906 76.2812 93.7917 74.9141 92.5938C73.5599 91.3958 72.8828 89.8854 72.8828 88.0625C72.8828 85.8229 73.7096 84.1042 75.3633 82.9062C77.0299 81.7083 79.4323 81.1029 82.5703 81.0898H85.168V79.8789C85.168 78.9023 84.9141 78.1211 84.4062 77.5352C83.9115 76.9492 83.1237 76.6562 82.043 76.6562C81.0924 76.6562 80.3438 76.8841 79.7969 77.3398C79.263 77.7956 78.9961 78.4206 78.9961 79.2148H73.3516C73.3516 77.9909 73.7292 76.8581 74.4844 75.8164C75.2396 74.7747 76.3073 73.9609 77.6875 73.375C79.0677 72.776 80.6172 72.4766 82.3359 72.4766C84.9401 72.4766 87.0039 73.1341 88.5273 74.4492C90.0638 75.7513 90.832 77.5872 90.832 79.957V89.1172C90.8451 91.1224 91.125 92.6393 91.6719 93.668V94H85.9688ZM81.3008 90.0742C82.1341 90.0742 82.9023 89.8919 83.6055 89.5273C84.3086 89.1497 84.8294 88.6484 85.168 88.0234V84.3906H83.0586C80.2331 84.3906 78.7292 85.3672 78.5469 87.3203L78.5273 87.6523C78.5273 88.3555 78.7747 88.9349 79.2695 89.3906C79.7643 89.8464 80.4414 90.0742 81.3008 90.0742ZM101.926 67.6719V72.8672H105.539V77.0078H101.926V87.5547C101.926 88.3359 102.076 88.8958 102.375 89.2344C102.674 89.5729 103.247 89.7422 104.094 89.7422C104.719 89.7422 105.272 89.6966 105.754 89.6055V93.8828C104.647 94.2214 103.508 94.3906 102.336 94.3906C98.3776 94.3906 96.3594 92.3919 96.2812 88.3945V77.0078H93.1953V72.8672H96.2812V67.6719H101.926ZM114.641 94H108.977V72.8672H114.641V94ZM108.645 67.3984C108.645 66.5521 108.924 65.8555 109.484 65.3086C110.057 64.7617 110.832 64.4883 111.809 64.4883C112.772 64.4883 113.54 64.7617 114.113 65.3086C114.686 65.8555 114.973 66.5521 114.973 67.3984C114.973 68.2578 114.68 68.9609 114.094 69.5078C113.521 70.0547 112.759 70.3281 111.809 70.3281C110.858 70.3281 110.09 70.0547 109.504 69.5078C108.931 68.9609 108.645 68.2578 108.645 67.3984ZM131.555 94C131.294 93.4922 131.105 92.8607 130.988 92.1055C129.621 93.6289 127.844 94.3906 125.656 94.3906C123.586 94.3906 121.867 93.7917 120.5 92.5938C119.146 91.3958 118.469 89.8854 118.469 88.0625C118.469 85.8229 119.296 84.1042 120.949 82.9062C122.616 81.7083 125.018 81.1029 128.156 81.0898H130.754V79.8789C130.754 78.9023 130.5 78.1211 129.992 77.5352C129.497 76.9492 128.71 76.6562 127.629 76.6562C126.678 76.6562 125.93 76.8841 125.383 77.3398C124.849 77.7956 124.582 78.4206 124.582 79.2148H118.938C118.938 77.9909 119.315 76.8581 120.07 75.8164C120.826 74.7747 121.893 73.9609 123.273 73.375C124.654 72.776 126.203 72.4766 127.922 72.4766C130.526 72.4766 132.59 73.1341 134.113 74.4492C135.65 75.7513 136.418 77.5872 136.418 79.957V89.1172C136.431 91.1224 136.711 92.6393 137.258 93.668V94H131.555ZM126.887 90.0742C127.72 90.0742 128.488 89.8919 129.191 89.5273C129.895 89.1497 130.415 88.6484 130.754 88.0234V84.3906H128.645C125.819 84.3906 124.315 85.3672 124.133 87.3203L124.113 87.6523C124.113 88.3555 124.361 88.9349 124.855 89.3906C125.35 89.8464 126.027 90.0742 126.887 90.0742Z" fill="white"/>
</svg>
